<!-- Generated by IcoMoon.io -->
<svg version="1.1" xmlns="http://www.w3.org/2000/svg" width="32" height="32" viewBox="0 0 32 32">
<title>edit2</title>
<path fill="#dbf6fb" d="M32 16c0 8.837-7.163 16-16 16s-16-7.163-16-16c0-8.837 7.163-16 16-16s16 7.163 16 16z"></path>
<path fill="#00bcf1" d="M13.227 14.507l3.093 3.093 0.213-0.213 0.213 0.213 7.787-7.68-3.307-3.307-0.213 0.213-0.213-0.213-7.573 7.573 0.213 0.213-0.213 0.107zM24.32 9.707l0.213 0.213-0.213 0.213-0.213-0.213 0.213-0.213zM9.92 19.093l-0.853 0.853 0.32 0.32h-0.32v2.133h10.667v-2.133h-8.64l-1.173-1.173zM15.68 18.667l-3.52-3.52c0 0 0.427 1.493-1.813 3.52l1.6 1.6c0 0 2.453-2.027 3.733-1.6z"></path>
</svg>
