<?xml version="1.0" encoding="utf-8"?>
<!-- Generator: Adobe Illustrator 21.1.0, SVG Export Plug-In . SVG Version: 6.00 Build 0)  -->
<svg version="1.1" id="图层_1" xmlns="http://www.w3.org/2000/svg" xmlns:xlink="http://www.w3.org/1999/xlink" x="0px" y="0px"
	 viewBox="0 0 1096 478" style="enable-background:new 0 0 1096 478;" xml:space="preserve">
<style type="text/css">
	.st0{fill:#0f6588;}
</style>
<g>
	<path class="st0" d="M254.7,345.3c-0.7,4,2.6,7.4,7.2,7.4h82.8c4.6,0,9-3.4,9.7-7.4l13.1-82h-99.7L254.7,345.3z"/>
	<polygon class="st0" points="195.4,201.8 174.2,238.4 164.3,201.8 132.9,201.8 124.8,253.9 143.5,253.9 149.9,213 164.3,253.9 
		179.8,253.9 213.1,201.8 	"/>
	<path class="st0" d="M503.6,287.8c2.8,4.3,5.2,8.6,7.3,13l5.4-3.2c-2.7-4.7-5.4-9-8.1-12.8L503.6,287.8z"/>
	<path class="st0" d="M471.6,241h18h15.1l4.6,11.6l13.6-0.4l-19.7-48.4h-13.6h-6.9L449.4,252l16.7-0.2L471.6,241z M489.6,214.8
		l3.1-4.5l9.9,23.8l-13.1-0.2l-13.1-0.4L489.6,214.8z"/>
	<path class="st0" d="M313.9,253.5c8.7,0,20.2-1.9,24.4-5.3c4.7-3.8,6.5-10.2,8.1-18.6c1.5-8.4,2.2-16.9-4.3-23.2
		c-4.5-4.4-15.8-4.6-23.5-4.6h-6.6h-31l-6.6,50.8l37.6,0.9h0.7C313.1,253.5,313.5,253.5,313.9,253.5z M310.3,242l-21-0.5l5.5-29
		l17.2,0.2h3.9c15.5,0,19.1,2,18,15.2c-2.2,13.3-8.3,14-21.9,14.2C311.4,242,310.8,242,310.3,242z"/>
	<polygon class="st0" points="263.2,243.9 227,243.9 229.5,232 266,232 267.2,223 230.8,223 233,211.4 268.9,211.4 270.4,201.8 
		218.9,201.8 209.9,253.9 261.7,253.9 	"/>
	<polygon class="st0" points="813.7,254.2 824.3,254.2 829.5,212.2 852.3,212.2 852.3,202.9 796.1,202.9 796.1,212.2 818.9,212.2 	
		"/>
	<path class="st0" d="M886.6,310.7c4.6,4.5,7.8,7.9,9.5,10l4.2-4c-2.2-2.3-5.5-5.4-9.9-9.3L886.6,310.7z"/>
	<polygon class="st0" points="586.2,241.2 550.6,241.4 555.8,203.4 541.5,203.4 534.3,251.7 585.3,251.7 	"/>
	<path class="st0" d="M907.4,301.5c-2.6-2.8-6-6.1-10.3-9.8l-3.7,3.3c3.9,3.7,7.2,7.2,9.8,10.4L907.4,301.5z"/>
	<path class="st0" d="M795.4,311.5c-0.8-4.9-1.7-9.1-2.7-12.6l-4.5,1.6c0.9,3.9,1.7,8.1,2.2,12.7L795.4,311.5z"/>
	<polygon class="st0" points="902.5,253.9 903.9,243.9 867.7,243.9 870.3,232 906.7,232 908,223 871.5,223 873.8,211.4 909.6,211.4 
		911.1,201.8 859.7,201.8 850.6,253.9 	"/>
	<path class="st0" d="M646,251.9c1.8-1.4,4.6-4.5,5.1-10.1l0.6-5.4c0.4-4.5-0.1-7.6-1.1-9.4c-1.6-2.4-4.9-2.8-8.4-2.8
		c-1.3,0-2.6,0-3.9,0l-25.8-0.4l0.5-7.8c0.6-3.4,1.3-2.9,4.4-3.1c14.5-0.2,23-0.2,37.5-0.4l-0.2-8.8l-38.5-0.2
		c-4.6,0-12.1,0.7-14.1,2.5c-1.8,1.4-2.4,4.9-3.1,9.4l-0.6,4.3c-0.7,4.5-0.6,7.4,0.7,9c1.3,1.6,5.1,2.3,9.7,2.3h29.1l-0.6,9.1
		c-0.9,4.2-3.9,4.2-5.9,4.5l-38.5-0.4l-0.6,8.8h40.1C637.3,253.3,643.8,253.3,646,251.9z"/>
	<path class="st0" d="M606.1,297.1l0.8-4.5h-5l1.4-7.8h-5l-1.4,7.8h-14l1.4-7.8h-5l-1.4,7.8h-4.7l-0.8,4.5h4.7l-5.5,30.4h-5.2
		l-0.8,4.5h34.2l0.8-4.5h-5l5.5-30.4H606.1z M590.6,327.5h-14l1.3-7.4h14L590.6,327.5z M592.7,315.9h-14l1.3-7.3h14L592.7,315.9z
		 M594.8,304.4h-14l1.3-7.3h14L594.8,304.4z"/>
	<path class="st0" d="M741.9,231.3h29.1l-0.6,9.1c-0.9,4.2-3.9,4.2-5.9,4.5l-38.5-0.4l-0.6,8.8h40.1c4.6,0,11,0,13.2-1.4
		c1.8-1.4,4.6-4.5,5.1-10.1l0.6-5.4c0.4-4.5-0.1-7.6-1.1-9.4c-1.6-2.4-4.9-2.8-8.4-2.8c-1.3,0-2.6,0-3.9,0l-25.8-0.4l0.6-7.8
		c0.6-3.4,1.3-2.9,4.4-3.1c14.5-0.2,23-0.2,37.5-0.4l-0.2-8.8l-40.6-0.2c-4.6,0-9.9,0.7-12,2.5c-1.8,1.4-2.4,4.9-3.1,9.4l-0.6,4.3
		c-0.7,4.5-0.6,7.4,0.7,9C733.4,230.5,737.3,231.3,741.9,231.3z"/>
	<polygon class="st0" points="683.6,253.9 698.4,253.9 699.7,231.4 729.1,203.6 714.5,203.6 692.7,223.7 675.3,203.6 660.6,203.6 
		684.8,231.6 	"/>
	<polygon class="st0" points="676.5,292.6 691.8,292.6 688.2,301.5 677.4,301.5 671.6,333.5 676.4,333.5 681.4,305.9 700.8,305.9 
		695.9,333.5 700.6,333.5 706.4,301.5 693.4,301.5 697.2,292.6 710.6,292.6 711.4,288.2 677.2,288.2 	"/>
	<path class="st0" d="M885.2,321.5c-2.3-2.6-4.8-5.2-7.5-8l-3.4,2.6l1.3-7.4h10.7l0.8-4.7h-10.7l1.8-10.3c3.7-0.4,7.6-0.9,11.8-1.4
		l-0.9-4.9c-8.8,1.3-17.6,2.3-26.4,2.9c0.3,1.6,0.4,3.2,0.5,4.9c3.1-0.3,6.4-0.6,9.9-0.9l-1.7,9.7h-11l-0.8,4.7h10.6
		c-4.1,8.3-9.3,15.7-15.6,22.4c0.6,1.9,1.1,3.8,1.5,5.6c4.5-4.7,8.7-10.4,12.5-17.2l-5.3,29.7h5l5.8-32.3c2.1,2.3,4.4,5.1,6.7,8.2
		L885.2,321.5z"/>
	<path class="st0" d="M806.7,309.4h33.1l-15.6,9.1l-3.7,20.4c-0.5,2.6-2,3.9-4.6,3.9c-2.6,0-6.2-0.2-10.5-0.7c0.1,1.8,0,3.7-0.2,5.6
		c5.7,0.1,9.4,0.1,11.2,0.1c5.2,0,8.2-2.6,9.2-7.8l3.4-19l19.2-11.6l0.9-4.7h-41.4L806.7,309.4z"/>
	<path class="st0" d="M856.3,292h-23.6c-0.9-2.6-1.9-5.3-3-8l-5.3,2.3c0.7,1.6,1.5,3.5,2.3,5.7h-26.1l-4.5,25.2
		c-4.1,2.1-8.2,3.9-12.1,5.7l0.3,5.5c2.5-1.4,6-3.3,10.5-5.7c-2.6,9.4-6.5,16.9-11.8,22.5c1.2,1.3,2.2,2.8,3.2,4.5
		c7.4-7.2,12.5-18.7,15.3-34.5l3.3-18.4h50.7L856.3,292z"/>
	<polygon class="st0" points="723.2,287.8 712.6,346.4 773.2,346.4 774.1,341.4 719,341.4 727.8,292.8 782.1,292.8 783,287.8 	"/>
	<polygon class="st0" points="351.4,252.9 368,252.9 375,203.4 358,203.6 	"/>
	<path class="st0" d="M982.9,284.5h-5.4l-1.9,10.6h-17.6l-0.9,4.8h17.6l-1.8,10.1h-17.3l-0.8,4.3h4.5c0.9,8.6,3.4,15.6,7.4,20.9
		c-6.4,4-13.8,7.3-22.3,9.9c1.1,1.7,2,3.3,2.7,4.7c8.4-3,16-6.7,22.7-11.1c4.3,4.1,9.9,7.7,16.6,10.6c1.4-1.4,3.2-3.1,5.2-5.1
		c-7.1-2-12.8-5-17.1-8.9c6.8-5.4,12.6-12.6,17.3-21.3l0.7-3.9h-14.3l1.8-10.1h18.3l0.9-4.8H981L982.9,284.5z M986,314.3
		c-3.5,6.8-8.4,12.7-14.6,17.6c-3.8-4.8-6.2-10.6-6.9-17.6H986z"/>
	<path class="st0" d="M691.3,318.4l1.8-9.8h-4.8l-1.8,9.7c-1.3,7.1-3.6,12.5-7,16.3c-3.4,3.8-8.1,7.2-13.9,10.3
		c1.2,1.3,2.1,2.8,3,4.3c6.2-3.5,11.1-7.4,14.7-11.7c0.5-0.7,1-1.3,1.5-2c4.3,4.5,8.1,9.1,11.4,13.6l4.9-3.8
		c-3.9-4.7-8.5-9.5-13.6-14.5C689.2,327.2,690.5,323.1,691.3,318.4z"/>
	<path class="st0" d="M952.8,312.4c-2.6,0.8-5.2,1.6-8,2.4l2.3-12.6h7.9l0.8-4.5h-7.9l2.3-12.8h-5.2l-2.3,12.8h-9l-0.8,4.5h9
		l-2.6,14.2c-3.3,0.9-6.8,1.9-10.3,2.8l-0.3,5.5c3.3-1,6.5-2,9.7-3l-3.3,18.4c-0.4,2-1.5,3-3.4,3c-1.3,0-3.3-0.1-5.9-0.4
		c0,1.9-0.1,3.8-0.1,5.6c1.3,0,2.4,0,3.5,0c1.1,0,2.1,0,3,0c4.5,0,7.2-2.4,8-7l3.8-21.2c2.7-0.8,5.4-1.6,8.1-2.4
		C952.2,316.2,952.4,314.5,952.8,312.4z"/>
	<polygon class="st0" points="950.8,253.5 956.8,253.7 989.5,215.1 983.4,253.7 995.8,253.9 1002.4,203.3 983.8,203.3 957.1,234.8 
		941.7,203.8 919.5,203.8 911.8,253.3 922.5,253.3 928.2,214.7 	"/>
	<polygon class="st0" points="918.8,284.7 913.6,284.7 906.3,325.3 879.5,327.6 879.2,332.4 905.4,330.1 902,349.2 907.1,349.2 
		910.7,329.6 921.9,328.6 922.3,323.9 911.5,324.9 	"/>
	<path class="st0" d="M756.9,305.7h19l0.9-4.7h-32.9c1.3-1.8,2.6-3.7,3.9-5.7l-4.7-1.8c-4.1,7-9,13-14.6,18.2
		c1.4,1.2,2.7,2.3,3.8,3.4c2.8-2.8,5.6-5.9,8.3-9.3h11.1c-0.8,3.9-1.8,7.4-3,10.4h-21.3l-0.9,4.7h19.8c-3.2,6.1-11,11.3-23.3,15.6
		c1.1,1.5,2.1,3,2.8,4.5c10-3.5,17.4-8,22.2-13.6c7.3,4.4,13.9,8.7,19.9,12.9l4.2-5c-7.3-4.6-14.4-8.6-21.1-12
		c0.4-0.7,0.8-1.6,1.2-2.4h24.2l0.9-4.7H754C755.2,313,756.1,309.5,756.9,305.7z"/>
	<path class="st0" d="M441.8,251.9l0.6-9.9c-5.3,0-15.3,0.2-29.1,0.2c-6.8,0-10.1,0-11.2-1.8c-0.9-1.6-1.7-2.2-1.3-7.6l0.7-12.5
		c0.6-7.6,10.7-7.6,16.2-7.6c7.5,0,12.6-0.1,18.3-0.1c2.9,0,5.9,0,9.4,0.1l1.3-10.5l-35.3,0.4c-10.8,0.2-14.9,1.3-19.1,4.3
		c-4,2.9-8.6,7.4-8.6,15.5l-0.2,10.7c0,8.8-0.6,12.8,4,15.7c3.3,2.3,6.4,3.3,16,3.3c1.7,0,10.4,0.2,19.9,0.2
		C429.8,252.2,436.5,252.2,441.8,251.9z"/>
	<path class="st0" d="M461.5,305.3h25.3l0.8-4.5h-25.3l1-5.8h28.2l0.8-4.5h-28.2l1.2-6.6h-5.3l-1.2,6.6h-28.1L430,295h28.1l-1,5.8
		h-25.1l-0.8,4.5h25.1l-1.1,5.9H425l-0.8,4.5h19.5c-6.7,7.4-14.3,13.7-22.6,18.8c1.2,1.1,2.2,2.4,3.1,3.8c4.5-3,9-6.5,13.5-10.6
		c2.8,4.4,6.1,8,10,10.6c-8.4,2.9-17.5,5.1-27.3,6.4c0.8,1.7,1.5,3.2,2.1,4.7c11.9-1.9,21.9-4.6,30.2-8.1c7.4,3.7,17,6.2,28.7,7.3
		c1.9-2.7,3.3-4.5,4.2-5.5c-10.4-0.1-19.3-1.7-26.7-4.7c7.1-3.7,13.2-8,18.3-12.9l0.7-3.9h-33.7c1.8-1.8,3.6-3.8,5.3-5.8h40.2
		l0.8-4.5h-30.1L461.5,305.3z M470.6,325.7c-5.2,4.2-10.7,7.6-16.6,10.3c-4.4-2.5-8.3-5.9-11.7-10.3H470.6z"/>
	<polygon class="st0" points="359.5,195.9 376.5,195.9 379.4,177.8 362.4,177.8 	"/>
	<path class="st0" d="M384.8,104.4H302c-4.6,0-9,3.4-9.7,7.6L279,193.9h74.6l3.5-21.1l24.9-0.2l9.9-60.6
		C392.7,107.9,389.4,104.4,384.8,104.4z"/>
	<path class="st0" d="M520.3,342.6c-7.2-0.1-12.1-2.2-14.7-6.1l5.2-28.8h-12.9l-0.9,4.8h7.7l-4.1,23c-3.2,2.3-6.4,4.7-9.6,7.2
		l1.9,5.6c4.8-4.6,7.9-7.4,9.4-8.4c2.7,4.9,8.6,7.4,17.6,7.5l17.4,0.2l17.8-0.1c1-1.6,2.1-3.3,3.1-5.1l-22.8,0.5L520.3,342.6z"/>
	<path class="st0" d="M637.9,291.3l-1.2-4.9c-7.3,1.7-15.9,3-25.7,3.9l-4.2,23.4c-2.4,13.5-6.8,23.9-13,31.2
		c1.4,1.2,2.6,2.5,3.6,3.7c6.9-8.5,11.7-20.2,14.5-35.3h10.6l-6.4,35.7h5l6.4-35.7h7.7l0.8-4.6h-23.3l2.6-14.2
		C623.1,293.6,630.6,292.6,637.9,291.3z"/>
	<path class="st0" d="M588.3,333.2l-4,3c2.3,2.7,4.3,5.4,6.3,8.2l4.5-3.4C592.9,338.2,590.6,335.6,588.3,333.2z"/>
	<path class="st0" d="M546.1,284.2h-5l-1.9,10.6h-17l-7.7,42.6h4.8l0.5-3h29.2l-0.5,2.6h4.8l7.6-42.2h-17L546.1,284.2z M532.9,330.1
		h-12.1l2.4-13.4h12.1L532.9,330.1z M524,312.5l2.4-13.4h12.1l-2.4,13.4H524z M550,330.1h-12.1l2.4-13.4h12.1L550,330.1z
		 M555.6,299.2l-2.4,13.4H541l2.4-13.4H555.6z"/>
	<path class="st0" d="M666.5,334.2c-4.6,2-8.8,3.9-12.4,5.6l2.7-15h5.6l-0.3,1.8h4.8l4.4-24.4h-4.8l-3.3,18.1h-5.7l4.4-24.2h12.4
		l0.8-4.4h-12.4l1.2-6.8h-4.8l-1.2,6.8h-12.5l-0.8,4.4h12.5l-4.4,24.2H647l3.3-18h-4.7l-4,22.4h10.4l-2.5,13.6
		c-0.4,2.3-1.4,4-3.1,5.1l2.4,4.4c0.6-0.5,1.8-1.3,3.6-2.4c4.2-2.2,8.7-4.4,13.5-6.4C665.9,337.9,666.1,336.3,666.5,334.2z"/>
	<path class="st0" d="M562.7,345.4c1.3,1.3,2.3,2.4,3.1,3.5c4-3,8.5-7.1,13.6-12.2l-3.5-3.2C571.9,337.8,567.5,341.7,562.7,345.4z"
		/>
</g>
</svg>
